<svg xmlns="http://www.w3.org/2000/svg" width="1200" height="520" viewBox="0 0 1200 520">
  <rect width="1200" height="520" rx="26" fill="#f8fafc"/>
  <text x="600" y="55" text-anchor="middle" font-size="32" font-weight="700" style="font-family: Arial, Helvetica, sans-serif;" fill="#102033">Data Centers as Restoration-Compatible Grid Assets</text>
  <g style="font-family: Arial, Helvetica, sans-serif;" font-size="18" fill="#102033">
    <rect x="65" y="165" width="210" height="115" rx="18" fill="#fff" stroke="#c8d2e1" stroke-width="2"/>
    <text x="170" y="205" text-anchor="middle" font-weight="700">Grid Event</text>
    <text x="170" y="235" text-anchor="middle">blackstart /</text><text x="170" y="260" text-anchor="middle">restoration</text>
    <path d="M285 222 L390 222" stroke="#6b7c93" stroke-width="4" marker-end="url(#arrow)"/>

    <rect x="400" y="130" width="240" height="185" rx="20" fill="#fff" stroke="#c8d2e1" stroke-width="2"/>
    <text x="520" y="172" text-anchor="middle" font-weight="700">Data Center Model</text>
    <text x="520" y="207" text-anchor="middle">grid import/export</text>
    <text x="520" y="232" text-anchor="middle">backup generation</text>
    <text x="520" y="257" text-anchor="middle">battery support</text>
    <text x="520" y="282" text-anchor="middle">IT flexibility</text>
    <path d="M650 222 L755 222" stroke="#6b7c93" stroke-width="4" marker-end="url(#arrow)"/>

    <rect x="765" y="130" width="240" height="185" rx="20" fill="#fff" stroke="#c8d2e1" stroke-width="2"/>
    <text x="885" y="172" text-anchor="middle" font-weight="700">Coordination Policy</text>
    <text x="885" y="207" text-anchor="middle">site scoring</text>
    <text x="885" y="232" text-anchor="middle">support scheduling</text>
    <text x="885" y="257" text-anchor="middle">critical IT protection</text>
    <text x="885" y="282" text-anchor="middle">restoration metrics</text>

    <rect x="410" y="385" width="380" height="70" rx="18" fill="#102033"/>
    <text x="600" y="428" text-anchor="middle" font-size="22" font-weight="700" fill="#fff">Outcome: more restored load with protected critical service</text>
  </g>
  <defs><marker id="arrow" markerWidth="10" markerHeight="10" refX="8" refY="3" orient="auto" markerUnits="strokeWidth"><path d="M0,0 L0,6 L9,3 z" fill="#6b7c93"/></marker></defs>
</svg>